<?xml version="1.0" standalone="no"?>
<!DOCTYPE svg PUBLIC "-//W3C//DTD SVG 20010904//EN"
 "http://www.w3.org/TR/2001/REC-SVG-20010904/DTD/svg10.dtd">
<svg version="1.0" xmlns="http://www.w3.org/2000/svg"
 width="1200.000000pt" height="630.000000pt" viewBox="0 0 1200.000000 630.000000"
 preserveAspectRatio="xMidYMid meet">

<g transform="translate(0.000000,630.000000) scale(0.100000,-0.100000)"
fill="#000000" stroke="none">
<path d="M4685 5274 c-371 -50 -653 -280 -769 -625 -54 -162 -56 -205 -56
-1499 0 -1294 2 -1337 56 -1499 95 -282 305 -491 587 -585 165 -55 205 -56
1497 -56 1292 0 1332 1 1497 56 283 94 495 306 587 587 55 167 56 207 56 1499
0 1292 -2 1335 -56 1497 -95 283 -304 491 -587 585 -166 55 -203 56 -1512 55
-951 -1 -1221 -4 -1300 -15z m1491 -454 c168 -27 389 -117 529 -218 242 -173
414 -419 489 -702 108 -404 15 -833 -250 -1147 -24 -28 -44 -54 -44 -57 0 -3
176 -6 391 -6 l390 0 -3 -412 -3 -413 -26 -56 c-47 -100 -129 -165 -237 -188
-38 -8 -480 -11 -1548 -11 l-1495 0 3 423 3 422 27 52 c35 66 85 116 151 151
51 27 54 27 270 30 119 2 217 5 217 8 0 2 -25 34 -55 71 -271 337 -354 793
-218 1201 136 408 473 722 889 828 171 43 346 51 520 24z"/>
<path d="M5850 4779 c-281 -28 -533 -149 -736 -353 -184 -184 -291 -383 -341
-633 -23 -117 -22 -347 1 -458 48 -224 148 -421 296 -587 l52 -58 879 0 c483
0 879 3 879 8 0 4 -4 13 -9 21 -6 10 9 37 53 92 479 606 281 1500 -409 1846
-192 97 -449 144 -665 122z m236 -90 c390 -37 727 -275 901 -635 165 -343 148
-738 -47 -1065 -61 -102 -119 -170 -127 -150 -25 60 -63 118 -86 129 -15 7
-60 15 -100 18 -120 9 -117 7 -117 64 0 27 -4 51 -9 54 -12 8 -48 -34 -66 -77
-8 -20 -18 -37 -21 -37 -5 0 -45 20 -53 26 -2 2 18 31 43 65 26 34 62 94 80
133 37 81 90 134 183 183 56 31 57 32 29 39 -15 3 -70 7 -122 8 l-94 1 6 100
c3 55 9 116 13 135 l7 35 18 -30 17 -30 -6 38 -6 39 45 -27 c52 -30 56 -27 23
18 -50 69 -86 180 -45 139 16 -16 29 -15 22 2 -4 11 4 16 28 20 18 3 51 8 73
12 l40 6 -35 13 c-82 29 -138 65 -161 102 -12 21 -34 50 -47 66 -18 18 -21 27
-11 27 23 0 134 56 212 107 l72 47 -95 12 c-124 17 -169 22 -265 33 -85 9
-149 31 -110 39 47 9 36 22 -19 22 -31 0 -76 4 -99 10 -23 5 -64 12 -90 15
l-49 7 51 36 c28 20 51 41 51 46 0 11 -139 -1 -245 -21 -87 -16 -178 -50 -225
-83 -35 -25 -35 -24 -15 23 25 61 18 73 -17 31 -18 -22 -61 -64 -97 -94 -67
-58 -100 -101 -102 -135 0 -12 -18 -33 -42 -50 -23 -17 -80 -81 -127 -142 -47
-62 -97 -125 -112 -141 -16 -15 -28 -32 -28 -36 0 -7 57 23 117 62 l23 14 -24
-53 c-13 -30 -27 -70 -31 -89 l-8 -35 21 25 c17 21 16 11 -12 -70 -38 -110
-55 -146 -92 -189 -54 -65 11 -27 100 58 l58 56 -7 -74 c-3 -40 -9 -80 -12
-90 -4 -14 -3 -14 10 2 8 9 16 17 19 17 3 0 8 -48 11 -107 5 -105 20 -175 30
-143 2 8 14 66 26 129 27 139 40 169 41 91 0 -30 -4 -70 -9 -88 -12 -39 0 -41
28 -4 l20 27 1 -27 c0 -15 6 -33 14 -40 7 -8 22 -35 34 -60 l20 -46 -30 -29
c-16 -15 -44 -48 -61 -72 -24 -36 -27 -43 -11 -37 42 17 91 18 123 2 29 -16
31 -20 25 -54 -15 -84 -19 -87 -159 -113 -87 -17 -109 -32 -146 -96 l-33 -57
-70 75 c-144 153 -255 401 -278 619 -24 239 19 458 132 667 170 315 517 551
860 582 125 12 127 12 246 0z m359 -1246 c-2 -7 -11 -13 -20 -13 -16 0 -19 26
-8 81 l6 33 13 -45 c8 -24 12 -50 9 -56z m-859 -179 c-12 -31 -26 -11 -25 34
l1 47 14 -34 c8 -18 13 -40 10 -47z m45 -281 c36 -21 36 -29 4 -37 -33 -8 -45
-1 -45 30 0 29 3 29 41 7z"/>
<path d="M4603 2623 c-60 -21 -136 -92 -162 -152 -21 -49 -21 -61 -19 -428 l3
-378 1495 0 1495 0 51 27 c28 15 70 48 93 74 68 78 71 97 71 511 l0 363 -1492
-1 c-1299 0 -1499 -3 -1535 -16z m357 -133 c19 -19 20 -33 20 -319 0 -259 -2
-302 -16 -315 -25 -25 -61 -30 -89 -12 l-25 16 0 310 c0 308 0 309 22 324 31
22 64 20 88 -4z m672 -3 c40 -17 55 -46 38 -77 -15 -28 -48 -33 -131 -21 -181
29 -264 -36 -264 -204 0 -69 4 -86 27 -127 42 -70 87 -88 225 -88 77 0 114 -4
120 -12 22 -29 22 -48 -1 -75 -23 -26 -26 -27 -137 -27 -185 -1 -275 46 -335
176 -26 56 -29 74 -29 158 0 85 3 101 29 152 37 74 92 126 158 150 66 23 241
21 300 -5z m682 -15 c55 -25 112 -82 139 -141 17 -37 21 -67 21 -151 1 -91 -2
-111 -22 -152 -88 -176 -330 -235 -489 -118 -76 56 -133 179 -133 287 0 56 35
146 72 189 88 100 286 141 412 86z m508 10 c8 -6 76 -110 153 -231 l140 -220
3 222 c2 245 3 247 67 247 60 0 62 -6 69 -323 l6 -288 -25 -24 c-25 -26 -80
-34 -114 -16 -9 5 -91 120 -181 255 -90 136 -164 245 -166 243 -1 -1 2 -105 7
-231 10 -261 9 -266 -62 -266 -64 0 -66 9 -74 312 -7 242 -6 270 9 293 10 15
27 30 39 35 27 12 112 7 129 -8z"/>
<path d="M4885 2477 c-11 -8 -15 -19 -10 -26 5 -9 12 -7 26 8 30 32 20 44 -16
18z"/>
<path d="M5280 2434 c-44 -38 -30 -41 21 -5 23 17 35 31 26 31 -8 0 -30 -12
-47 -26z"/>
<path d="M5948 2354 c-30 -16 -53 -50 -40 -58 9 -6 79 61 71 68 -2 2 -16 -2
-31 -10z"/>
<path d="M6087 2356 c-27 -7 -60 -22 -74 -32 -106 -80 -69 -285 60 -333 41
-16 132 -13 175 4 80 34 116 90 116 185 0 155 -106 222 -277 176z"/>
<path d="M6698 2463 c-22 -27 -30 -43 -20 -43 4 0 18 14 30 30 24 32 15 42
-10 13z"/>
</g>
</svg>
